<svg id="fill" height="512" viewBox="0 0 64 64" width="512" xmlns="http://www.w3.org/2000/svg"><path d="m13 49 3-2.99v-3l5.954-6.01 11.037.009a2.011 2.011 0 0 1 2.009 2.011v3.99h5l4-4a5.657 5.657 0 0 1 8 0l-13 13h-13l-5 4.99z" fill="#f8f8fe"/><path d="m49.445 37.565-11.445 11.445h-13l-6 5.99 2 2 5-4.99h13l13-13a5.6 5.6 0 0 0 -2.555-1.445z" fill="#e3e3ff"/><path d="m13.172 46.929h5.657v14.142h-5.657z" fill="#376de3" transform="matrix(.707 -.707 .707 .707 -33.497 27.13)"/><path d="m26 41h9v2h-9z" fill="#e3e3ff"/><path d="m11.586 52h2.828v2h-2.828z" fill="#2298d1" transform="matrix(.707 -.707 .707 .707 -33.669 24.716)"/><g fill="#f8cc5c"><path d="m31 2h2v2h-2z"/><path d="m25.26 3.142h2v2h-2z" transform="matrix(.924 -.383 .383 .924 .415 10.368)"/><path d="m20.394 6.394h2v2h-2z" transform="matrix(.707 -.707 .707 .707 1.038 17.293)"/><path d="m17.142 11.26h2v2h-2z" transform="matrix(.383 -.924 .924 .383 -.129 24.326)"/><path d="m16 17h2v2h-2z"/><path d="m17.142 22.74h2v2h-2z" transform="matrix(.924 -.383 .383 .924 -7.703 8.747)"/><path d="m20.394 27.607h2v2h-2z" transform="matrix(.707 -.707 .707 .707 -13.962 23.506)"/><path d="m25.26 30.858h2v2h-2z" transform="matrix(.383 -.924 .924 .383 -13.221 43.931)"/><path d="m31 32h2v2h-2z"/><path d="m36.74 30.858h2v2h-2z" transform="matrix(.924 -.383 .383 .924 -9.321 16.874)"/><path d="m41.607 27.607h2v2h-2z" transform="matrix(.707 -.707 .707 .707 -7.749 38.506)"/><path d="m44.858 22.74h2v2h-2z" transform="matrix(.383 -.924 .924 .383 6.371 57.017)"/><path d="m46 17h2v2h-2z"/><path d="m44.858 11.26h2v2h-2z" transform="matrix(.924 -.383 .383 .924 -1.201 18.478)"/><path d="m41.607 6.394h2v2h-2z" transform="matrix(.707 -.707 .707 .707 7.251 32.293)"/><path d="m36.74 3.142h2v2h-2z" transform="matrix(.383 -.924 .924 .383 19.474 37.426)"/><path d="m31 21h-2v-2h2v-11h-4.022a.978.978 0 0 0 -.978.978v2.022h2a1 1 0 0 1 1 1v4a1 1 0 0 1 -1 1h-3v-2h2v-2h-2v-1h-2.022a.978.978 0 0 0 -.978.978v7.044a.978.978 0 0 0 .978.978h.044a.978.978 0 0 1 .978.978v3.044a.978.978 0 0 0 .978.978h2.022v-3h2v4h-1v1.022a.978.978 0 0 0 .978.978h2.022z"/><path d="m41 12h-2v1h-2v3h-2v-4a1 1 0 0 1 1-1h2v-2a1 1 0 0 0 -1-1h-4v13h2v-2h2v3a1 1 0 0 1 -1 1h-3v6h2a1 1 0 0 0 1-1v-1a1 1 0 0 1 1-1h2a1 1 0 0 0 1-1v-3a1 1 0 0 1 1-1 1 1 0 0 0 1-1v-7a1 1 0 0 0 -1-1z"/></g><path d="m18.293 61.707a1 1 0 0 0 1.414 0l4-4a1 1 0 0 0 0-1.414l-.292-.293 3-2.991h12.585a1 1 0 0 0 .707-.293l13-13a1 1 0 0 0 0-1.414 6.665 6.665 0 0 0 -9.414 0l-3.707 3.708h-3.586v-2.99a3.015 3.015 0 0 0 -3.008-3.011l-11.037-.009a1 1 0 0 0 -.71.3l-5.955 6.007a1 1 0 0 0 -.29.7v2.593l-1 .993-.295-.3a1 1 0 0 0 -1.414 0l-4 4a1 1 0 0 0 0 1.414zm-1.593-14.988a1 1 0 0 0 .3-.709v-2.588l5.371-5.422 10.619.009a1.012 1.012 0 0 1 1.01 1.011v2.99h-8v2h14a1 1 0 0 0 .707-.293l4-4a4.664 4.664 0 0 1 5.8-.63l-11.921 11.923h-12.586a1 1 0 0 0 -.706.292l-3.294 3.285-6.584-6.587zm-3.7 1.7 8.586 8.581-2.586 2.586-5.586-5.586 1.293-1.293-1.414-1.414-1.293 1.293-1.586-1.586z"/><path d="m31 2h2v2h-2z"/><path d="m25.26 3.142h2v2h-2z" transform="matrix(.924 -.383 .383 .924 .415 10.368)"/><path d="m20.394 6.394h2v2h-2z" transform="matrix(.707 -.707 .707 .707 1.038 17.293)"/><path d="m17.142 11.26h2v2h-2z" transform="matrix(.383 -.924 .924 .383 -.129 24.326)"/><path d="m16 17h2v2h-2z"/><path d="m17.142 22.74h2v2h-2z" transform="matrix(.924 -.383 .383 .924 -7.703 8.747)"/><path d="m20.394 27.607h2v2h-2z" transform="matrix(.707 -.707 .707 .707 -13.962 23.506)"/><path d="m25.26 30.858h2v2h-2z" transform="matrix(.383 -.924 .924 .383 -13.221 43.931)"/><path d="m31 32h2v2h-2z"/><path d="m36.74 30.858h2v2h-2z" transform="matrix(.924 -.383 .383 .924 -9.321 16.874)"/><path d="m41.607 27.607h2v2h-2z" transform="matrix(.707 -.707 .707 .707 -7.749 38.506)"/><path d="m44.858 22.74h2v2h-2z" transform="matrix(.383 -.924 .924 .383 6.371 57.017)"/><path d="m46 17h2v2h-2z"/><path d="m44.858 11.26h2v2h-2z" transform="matrix(.924 -.383 .383 .924 -1.201 18.478)"/><path d="m41.607 6.394h2v2h-2z" transform="matrix(.707 -.707 .707 .707 7.251 32.293)"/><path d="m36.74 3.142h2v2h-2z" transform="matrix(.383 -.924 .924 .383 19.474 37.426)"/><path d="m21 12.978v7.044a1.96 1.96 0 0 0 2 1.956v3.044a1.98 1.98 0 0 0 1.978 1.978l2.022-.022v1.044a1.98 1.98 0 0 0 1.978 1.978h2.044a1.961 1.961 0 0 0 .978-.269 1.961 1.961 0 0 0 .978.269h2.022a2 2 0 0 0 2-2v-1h2a2 2 0 0 0 2-2v-3a2 2 0 0 0 2-2v-7a2 2 0 0 0 -2-2h-2v-2a2 2 0 0 0 -2-2h-4.022a1.961 1.961 0 0 0 -.978.269 1.961 1.961 0 0 0 -.978-.269h-4.044a1.98 1.98 0 0 0 -1.978 1.978l.022 2.022h-2.044a1.98 1.98 0 0 0 -1.978 1.978zm12 10.022h3a1 1 0 0 0 1-1v-3h-2v2h-2v-12.015l4 .015v2h-1a1 1 0 0 0 -1 1v4h2v-3h4v7a2 2 0 0 0 -2 2v3h-2a2 2 0 0 0 -2 2v1l-2 .011zm-8-10h2v2h-2v2h3a1 1 0 0 0 1-1v-4a1 1 0 0 0 -1-1h-1v-2l4-.022.012 10.022h-2.012v2h2.014l.008 7-2.022.022v-5.022h-2v2l-2 .022v-3.044a1.941 1.941 0 0 0 -2-1.956l-.022-7.022z"/></svg>