<svg id="Capa_1" enable-background="new 0 0 512.005 512.005" height="512" viewBox="0 0 512.005 512.005" width="512" xmlns="http://www.w3.org/2000/svg"><g><g><path d="m408.483 312.687c-4.267 0-7.726-3.459-7.726-7.726v-33.829c0-12.781-10.398-23.179-23.179-23.179h-243.15c-12.781 0-23.179 10.398-23.179 23.179v33.829c0 4.268-3.459 7.726-7.726 7.726s-7.726-3.459-7.726-7.726v-33.829c0-21.301 17.33-38.631 38.632-38.631h243.15c21.302 0 38.632 17.33 38.632 38.631v33.829c-.002 4.267-3.461 7.726-7.728 7.726z" fill="#cbc4cc"/></g><g><path d="m256.003 247.953c-4.268 0-7.727-3.459-7.727-7.726l-.002-58.852c0-4.268 3.459-7.727 7.726-7.727 4.268 0 7.727 3.459 7.727 7.726l.002 58.852c0 4.268-3.459 7.727-7.726 7.727z" fill="#cbc4cc"/></g><g><path d="m207.042 408.485c0 57.175-46.349 103.515-103.524 103.515-34.905 0-65.777-17.277-84.53-43.747-11.961-16.88-18.985-37.498-18.985-59.768 0-7.245.748-14.315 2.16-21.135 9.755-47.041 51.425-82.389 101.355-82.389 57.175 0 103.524 46.349 103.524 103.524z" fill="#eaf6ff"/></g><path d="m103.518 304.961c-5.231 0-10.363.41-15.385 1.158 49.812 7.489 88.004 50.466 88.004 102.366 0 51.918-38.219 94.898-88.056 102.364 5.037.753 10.19 1.151 15.437 1.151 57.175 0 103.524-46.34 103.524-103.515s-46.349-103.524-103.524-103.524z" fill="#d8ecfe"/><path d="m368.415 181.375h-224.825c-17.069 0-30.905-13.837-30.905-30.905v-119.565c0-17.068 13.836-30.905 30.905-30.905h224.825c17.069 0 30.905 13.837 30.905 30.905v119.565c.001 17.069-13.836 30.905-30.905 30.905z" fill="#b5adb6"/><path d="m368.415 0h-30.905c17.069 0 30.905 13.837 30.905 30.905v119.565c0 17.069-13.837 30.905-30.905 30.905h30.905c17.069 0 30.905-13.837 30.905-30.905v-119.565c.001-17.068-13.836-30.905-30.905-30.905z" fill="#a79ba7"/><g fill="#fff"><path d="m376.034 125.063-13.569-70.997c-.85-4.167-4.408-7.244-8.654-7.483-4.238-.231-8.128 2.419-9.441 6.463-.029.089-.056.178-.081.267l-14.335 50.287-14.86-50.367c-.027-.092-.056-.183-.086-.274-1.354-4.033-5.275-6.657-9.51-6.366-4.245.284-7.771 3.4-8.592 7.666l-12.794 70.882c-.758 4.199 2.032 8.218 6.231 8.976 4.194.755 8.217-2.032 8.976-6.231l8.231-45.608 13.533 45.87c.027.092.056.183.086.273 1.285 3.826 4.85 6.388 8.882 6.388h.047c4.052-.02 7.615-2.623 8.866-6.476.029-.089.056-.178.082-.268l13.066-45.837 8.741 45.737c.801 4.192 4.849 6.944 9.039 6.139 4.195-.803 6.943-4.85 6.142-9.041z"/><path d="m207.848 110.889c-3.27-2.743-8.142-2.316-10.885.953-.678.807-1.409 1.562-2.174 2.243-3.926 3.496-8.917 5.27-14.836 5.27-15.807 0-28.667-12.86-28.667-28.668s12.86-28.667 28.667-28.667c5.746 0 11.287 1.692 16.024 4.891 3.537 2.389 8.339 1.459 10.727-2.077 2.389-3.536 1.459-8.339-2.077-10.727-7.301-4.932-15.833-7.539-24.674-7.539-24.328 0-44.12 19.792-44.12 44.12s19.792 44.12 44.12 44.12c9.684 0 18.368-3.176 25.114-9.183 1.321-1.177 2.577-2.473 3.733-3.851 2.744-3.269 2.317-8.143-.952-10.885z"/><path d="m273.051 73.211c0-14.691-12.433-26.643-27.714-26.643h-19.342c-.004 0-.008.001-.012.001s-.008-.001-.012-.001c-4.267 0-7.726 3.459-7.726 7.726v72.788c0 4.267 3.459 7.726 7.726 7.726s7.726-3.459 7.726-7.726v-24.239l25.827 29.344c1.527 1.735 3.659 2.622 5.803 2.622 1.813 0 3.634-.634 5.102-1.927 3.203-2.819 3.515-7.701.695-10.904l-19.991-22.714c12.508-2.57 21.918-13.273 21.918-26.053zm-27.714 11.19c-2.665 0-7.412.021-11.525.041-.022-4.032-.042-8.651-.042-11.231 0-2.182-.012-6.973-.025-11.191h11.592c6.646 0 12.261 5.125 12.261 11.191s-5.615 11.19-12.261 11.19z"/></g><g><g><path d="m44.362 493.436c16.769 11.698 37.16 18.564 59.156 18.564 22.001 0 42.394-6.867 59.165-18.567-1-31.823-27.094-57.318-59.16-57.318-32.068 0-58.162 25.496-59.161 57.321z" fill="#8795de"/></g><path d="m108.028 511.896c17.09-.551 38.212-6.682 54.655-18.463-.275-8.738-2.451-16.993-6.114-24.381-15.941 22.053-40.355 37.577-68.472 41.794-.519-.122 8.596 1.557 19.931 1.05z" fill="#6c7fd8"/><g><path d="m111.659 461.609c11.076 0 20.814-5.703 26.455-14.329-9.729-7.022-21.674-11.165-34.592-11.165-7.683 0-15.017 1.477-21.751 4.141 4.256 12.42 16.025 21.353 29.888 21.353z" fill="#6c7fd8"/><path d="m103.522 444.327c-17.45 0-31.596-14.146-31.596-31.596v-38.55c0-10.23 8.293-18.523 18.523-18.523h26.147c10.23 0 18.523 8.293 18.523 18.523v38.55c-.001 17.45-14.147 31.596-31.597 31.596z" fill="#ffcebf"/><path d="m116.595 355.658h-26.146c-10.23 0-18.523 8.293-18.523 18.523v23.568l26.775-8.821c9.874-3.253 20.696-1.76 29.321 4.044l7.096 4.776v-23.568c0-10.229-8.293-18.522-18.523-18.522z" fill="#c59191"/></g></g><g><g><circle cx="408.483" cy="408.48" fill="#eaf6ff" r="103.52"/></g><path d="m408.483 304.96c-5.252 0-10.411.394-15.453 1.149 49.842 7.461 88.067 50.45 88.067 102.371s-38.225 94.91-88.067 102.371c5.042.755 10.201 1.149 15.453 1.149 57.172 0 103.52-46.347 103.52-103.52 0-57.172-46.348-103.52-103.52-103.52z" fill="#d8ecfe"/><g><path d="m349.323 493.436c16.769 11.698 37.16 18.564 59.155 18.564 22.001 0 42.394-6.867 59.165-18.567-1-31.823-27.094-57.318-59.16-57.318-32.067 0-58.162 25.496-59.16 57.321z" fill="#fd8087"/><path d="m461.528 469.051c-15.941 22.054-40.355 37.579-68.472 41.796 23.632 3.767 52.391-1.548 74.586-17.414-.274-8.739-2.451-16.995-6.114-24.382z" fill="#fe646f"/><path d="m416.606 461.609c11.076 0 20.814-5.703 26.455-14.329-9.729-7.022-21.674-11.165-34.592-11.165-7.683 0-15.017 1.477-21.751 4.141 4.256 12.42 16.025 21.353 29.888 21.353z" fill="#fe646f"/><g><path d="m408.483 444.327c-17.45 0-31.596-14.146-31.596-31.596v-38.55c0-10.23 8.293-18.523 18.523-18.523h26.147c10.23 0 18.523 8.293 18.523 18.523v38.55c-.001 17.45-14.147 31.596-31.597 31.596z" fill="#ffcebf"/><path d="m421.556 355.658h-26.146c-10.23 0-18.523 8.293-18.523 18.523v23.568l26.775-8.821c9.874-3.253 20.696-1.76 29.321 4.044l7.096 4.776v-23.568c0-10.229-8.293-18.522-18.523-18.522z" fill="#c59191"/></g></g></g></g></svg>