<svg height="512pt" viewBox="0 0 512 512" width="512pt" xmlns="http://www.w3.org/2000/svg"><path d="m363.355469 148.070312h-214.710938l24.773438-16.515624 189.9375-16.515626zm0 0" fill="#ffdf00"/><path d="m363.355469 115.039062 21.773437-79.839843c1.933594-7.082031 1.183594-14.628907-2.097656-21.199219-3.289062-6.570312-10.269531-10.214844-18.496094-12.214844-13.402344-3.261718-27.523437-1.8359372-40.609375 2.523438l-34.894531 11.632812c-71.167969 22.644532-127.703125 59.039063-182.960938 109.273438-4.441406 4.039062-6.972656 9.761718-6.972656 15.761718 0 9.167969 5.863282 17.304688 14.5625 20.207032l.328125.109375c6.234375 2.078125 13.082031 1.160156 18.550781-2.484375l40.878907-27.253906zm0 0" fill="#ee3124"/><path d="m170 124.027344 90.839844-41.277344 6.832031 15.03125-90.84375 41.28125zm0 0" fill="#730b12"/><path d="m371.613281 57.230469c0 13.683593-11.09375 24.773437-24.773437 24.773437-13.683594 0-24.777344-11.089844-24.777344-24.773437 0-13.683594 11.09375-24.773438 24.777344-24.773438 13.679687 0 24.773437 11.089844 24.773437 24.773438zm0 0" fill="#ffdf00"/><path d="m181.675781 148.070312v82.578126l-11.558593-28.902344c-2.972657-7.515625-10.242188-12.386719-18.25-12.386719-10.902344 0-19.738282 8.835937-19.738282 19.738281v-44.511718c0-9.085938 7.433594-16.515626 16.515625-16.515626zm0 0" fill="#526d6f"/><path d="m379.871094 164.585938v44.511718c0-5.449218-2.230469-10.40625-5.78125-13.957031-3.550782-3.550781-8.503906-5.777344-13.957032-5.777344-8.007812 0-15.273437 4.871094-18.25 12.386719l-11.558593 28.902344v-82.582032h33.03125c4.542969 0 8.671875 1.816407 11.644531 4.875 3.054688 2.96875 4.871094 7.097657 4.871094 11.640626zm0 0" fill="#526d6f"/><path d="m379.871094 209.097656v29.8125c0 18.25-14.78125 33.03125-33.03125 33.03125l-16.519532 74.324219-74.320312 24.773437-74.324219-24.773437-16.515625-74.324219c-18.25 0-33.03125-14.78125-33.03125-33.03125v-29.8125c0-10.902344 8.835938-19.738281 19.738282-19.738281 8.007812 0 15.273437 4.871094 18.25 12.386719l11.558593 28.90625v-82.582032h148.644531v82.582032l11.5625-28.90625c2.972657-7.515625 10.242188-12.386719 18.25-12.386719 5.449219 0 10.40625 2.230469 13.957032 5.78125 3.550781 3.550781 5.78125 8.503906 5.78125 13.957031zm0 0" fill="#ffb398"/><path d="m256 511.425781h-256l33.03125-107.355469 67.714844-9.664062-1.648438 1.40625-33.035156 33.03125 66.066406-16.515625-8.257812 33.03125zm0 0" fill="#b7cdc8"/><path d="m363.355469 387.554688-.496094.496093c-4.789063 4.539063-44.925781 40.792969-106.859375 40.792969-61.9375 0-102.070312-36.253906-106.859375-40.792969l-.496094-.496093 8.257813-41.292969 8.257812-74.320313 16.515625 74.320313 74.324219 24.777343 74.320312-24.777343 16.519532-74.320313 8.257812 74.320313zm0 0" fill="#e89a82"/><path d="m239.484375 197.617188-33.03125-16.515626-16.519531 8.257813zm0 0" fill="#526d6f"/><path d="m322.066406 189.359375-16.519531-8.257813-33.03125 16.515626zm0 0" fill="#526d6f"/><path d="m222.96875 247.167969c-9.109375 0-16.515625-7.414063-16.515625-16.519531 0-9.101563 7.40625-16.515626 16.515625-16.515626s16.515625 7.414063 16.515625 16.515626c0 9.105468-7.40625 16.519531-16.515625 16.519531zm0-16.527344v.007813zm0 0" fill="#526d6f"/><path d="m289.03125 247.167969c-9.109375 0-16.515625-7.414063-16.515625-16.519531 0-9.101563 7.40625-16.515626 16.515625-16.515626s16.515625 7.414063 16.515625 16.515626c0 9.105468-7.40625 16.519531-16.515625 16.519531zm0-16.527344v.007813zm0 0" fill="#526d6f"/><path d="m256 511.425781 132.128906-66.066406-8.257812-33.03125 66.0625 16.515625-33.03125-33.03125-1.652344-1.40625 67.71875 9.664062 33.03125 107.355469zm0 0" fill="#b7cdc8"/><path d="m123.871094 445.359375 8.257812-33.03125-66.066406 16.515625 33.035156-33.03125 1.648438-1.40625 53.429687-45.832031 2.726563-2.3125-8.257813 41.292969.496094.496093 106.859375 123.375zm0 0" fill="#9fb2ac"/><path d="m379.871094 412.328125 8.257812 33.03125-132.128906 66.066406 106.859375-123.375.496094-.496093-8.257813-41.292969 2.722656 2.3125 53.429688 45.832031 1.652344 1.40625 33.03125 33.03125zm0 0" fill="#9fb2ac"/><path d="m412.902344 453.617188h49.546875v33.035156h-49.546875zm0 0" fill="#ffdf00"/><path d="m362.859375 388.050781-106.859375 123.375-106.859375-123.375c4.789063 4.539063 44.921875 40.792969 106.859375 40.792969 61.933594 0 102.070312-36.253906 106.859375-40.792969zm0 0" fill="#526d6f"/><path d="m24.773438 428.84375 24.773437 16.515625-24.773437 66.066406h-24.773438zm0 0" fill="#ffdf00"/><path d="m255.253906 288.457031c-13.25 0-24.027344-10.78125-24.027344-24.03125l16.515626-.742187c0 4.886718 3.371093 8.257812 7.511718 8.257812 3.78125 0 5.730469-2.492187 6.390625-3.566406.628907-1.015625 1.886719-3.644531.566407-6.796875l-12.898438-17.832031 13.378906-9.675782 13.359375 18.46875c.265625.363282.496094.742188.699219 1.144532 3.75 7.5 3.355469 16.242187-1.050781 23.378906-4.414063 7.136719-12.054688 11.394531-20.445313 11.394531zm0 0" fill="#e58365"/><path d="m239.484375 296.714844v16.515625c0 9.121093 7.394531 16.515625 16.515625 16.515625s16.515625-7.394532 16.515625-16.515625v-16.515625l-16.515625 8.257812zm0 0" fill="#e58365"/><path d="m338.582031 271.941406c0 9.121094-7.394531 16.515625-16.515625 16.515625-9.125 0-16.519531-7.394531-16.519531-16.515625s7.394531-16.515625 16.519531-16.515625c9.121094 0 16.515625 7.394531 16.515625 16.515625zm0 0" fill="#f40e34"/><path d="m206.453125 271.941406c0 9.121094-7.394531 16.515625-16.519531 16.515625-9.121094 0-16.515625-7.394531-16.515625-16.515625s7.394531-16.515625 16.515625-16.515625c9.125 0 16.519531 7.394531 16.519531 16.515625zm0 0" fill="#f40e34"/><path d="m295.449219 317.382812c-4.324219 0-8.667969-1.230468-12.457031-3.757812l-11.070313-7.378906-12.226563 6.113281c-2.324218 1.164063-5.066406 1.164063-7.386718 0l-12.230469-6.113281-11.070313 7.378906c-8.890624 5.921875-20.832031 4.742188-28.394531-2.8125l11.675781-11.679688c2.007813 2.007813 5.191407 2.324219 7.558594.75l15.054688-10.039062c2.464844-1.644531 5.621094-1.839844 8.273437-.515625l12.824219 6.410156 12.824219-6.410156c2.644531-1.324219 5.804687-1.128906 8.273437.515625l15.054688 10.039062c2.359375 1.574219 5.546875 1.257813 7.558594-.75l11.675781 11.679688c-4.339844 4.335938-10.121094 6.570312-15.9375 6.570312zm0 0" fill="#526d6f"/><g fill="#fff"><path d="m235.039062 68.078125-7.628906-14.644531c8.546875-4.453125 17.066406-8.5 25.335938-12.046875l6.507812 15.175781c-7.886718 3.386719-16.035156 7.257812-24.214844 11.515625zm0 0"/><path d="m153.929688 121.382812-10.570313-12.691406c1.023437-.855468 25.507813-21.160156 60.429687-42.039062l8.476563 14.175781c-33.824219 20.226563-58.09375 40.355469-58.335937 40.554687zm0 0"/><path d="m255.25 115.0625 90.835938-8.238281 1.492187 16.453125-90.839844 8.238281zm0 0"/><path d="m363.355469 48.972656c0 4.5625-3.699219 8.257813-8.257813 8.257813-4.5625 0-8.257812-3.695313-8.257812-8.257813s3.695312-8.257812 8.257812-8.257812c4.558594 0 8.257813 3.695312 8.257813 8.257812zm0 0"/><path d="m105.367188 408.453125 16.515624-4.132813 4.007813 16.015626-16.515625 4.132812zm0 0"/><path d="m386.09375 420.339844 4.003906-16.019532 16.515625 4.128907-4.003906 16.019531zm0 0"/><path d="m40.621094 489.898438-15.175782-6.5 24.773438-57.804688c1.015625-2.378906 3.082031-4.136719 5.585938-4.757812l33.03125-8.257813 4.007812 16.015625-29.058594 7.265625zm0 0"/><path d="m462.449219 494.910156h-24.773438v-16.519531h16.515625v-24.773437h16.519532v33.035156c0 4.5625-3.699219 8.257812-8.261719 8.257812zm0 0"/><path d="m404.644531 478.390625h16.515625v16.519531h-16.515625zm0 0"/><path d="m256 486.652344c-9.121094 0-16.515625-7.394532-16.515625-16.519532v-16.515624c0-9.121094 7.394531-16.515626 16.515625-16.515626s16.515625 7.394532 16.515625 16.515626v16.515624c0 9.125-7.394531 16.519532-16.515625 16.519532zm0 0"/><path d="m247.742188 430.132812h16.515624v11.25h-16.515624zm0 0"/></g></svg>