<svg height="512pt" viewBox="0 0 512 512.00048" width="512pt" xmlns="http://www.w3.org/2000/svg"><path d="m366 197.886719-.589844 224.222656c-.007812 2.222656-1.289062 4.238281-3.289062 5.179687l-38.941406 18.316407-132 63.097656-5.71875 2.738281c-.773438.371094-1.617188.558594-2.460938.558594s-1.6875-.1875-2.457031-.558594l-5.722657-2.738281-171.5625-82c-1.988281-.953125-3.257812-2.96875-3.257812-5.179687v-223.636719c0-1.148438.34375-2.238281.957031-3.15625.558594-.859375 1.34375-1.5625 2.304688-2.019531l139.90625-66.867188 36.800781-17.296875c1.542969-.730469 3.316406-.730469 4.863281 0l177.964844 84.191406c.945313.457031 1.6875 1.144531 2.246094 1.992188.613281.917969.957031 2.007812.957031 3.15625zm0 0" fill="#ff50b5"/><path d="m365.042969 194.730469-24.4375 11.679687-178.953125-89.257812 18.316406-8.609375c1.539062-.726563 3.324219-.722657 4.863281.007812l177.964844 84.1875c.945313.457031 1.6875 1.148438 2.246094 1.992188zm0 0" fill="#c43f9a"/><path d="m183 282.0625v229.9375c-.84375 0-1.6875-.1875-2.457031-.558594l-5.722657-2.738281-171.5625-82c-1.988281-.953125-3.257812-2.96875-3.257812-5.179687v-223.636719c0-1.148438.34375-2.238281.957031-3.15625zm0 0" fill="#80deea"/><path d="m365.398438 198.488281v223.613281c0 2.226563-1.28125 4.25-3.289063 5.191407l-38.925781 18.3125-132.003906 63.097656-5.71875 2.738281c-.773438.371094-1.617188.558594-2.460938.558594v-229.9375l139.496094-66.679688 41.945312-20.046874c.613282.914062.957032 2.003906.957032 3.152343zm0 0" fill="#ffca28"/><path d="m366 197.886719-.589844 224.222656c-.003906 2.21875-1.285156 4.238281-3.289062 5.179687l-21.515625 10.121094v-231l24.4375-11.679687c.613281.917969.957031 2.007812.957031 3.15625zm0 0" fill="#ffb300"/><path d="m511.101562 483.132812-27.65625 27.960938c-1.195312 1.210938-3.140624 1.210938-4.339843 0l-37.535157-37.949219c-1.195312-1.214843-3.140624-1.214843-4.339843 0l-8.589844 8.683594c-1.929687 1.953125-5.238281.570313-5.238281-2.195313v-52.09375c0-1.714843 1.375-3.101562 3.070312-3.101562h51.527344c2.734375 0 4.105469 3.339844 2.171875 5.292969l-6.605469 6.679687c-1.199218 1.210938-1.199218 3.175782 0 4.386719l37.535156 37.949219c1.199219 1.210937 1.199219 3.175781 0 4.386718zm0 0" fill="#ffca28"/><path d="m275.714844 92.714844c0 51.207031-41.507813 92.71875-92.714844 92.71875s-92.714844-41.511719-92.714844-92.71875c0-51.203125 41.507813-92.714844 92.714844-92.714844s92.714844 41.511719 92.714844 92.714844zm0 0" fill="#80deea"/><path d="m275.714844 92.714844c0 51.207031-41.507813 92.71875-92.714844 92.71875s-92.714844-41.511719-92.714844-92.71875c0-51.203125 41.507813-92.714844 92.714844-92.714844s92.714844 41.511719 92.714844 92.714844zm0 0" fill="#80deea"/><path d="m183 0c-5.265625 0-10.425781.445312-15.453125 1.289062 43.847656 7.359376 77.265625 45.488282 77.265625 91.425782 0 45.941406-33.414062 84.070312-77.265625 91.429687 5.027344.84375 10.1875 1.289063 15.453125 1.289063 51.207031 0 92.714844-41.511719 92.714844-92.71875 0-51.203125-41.507813-92.714844-92.714844-92.714844zm0 0" fill="#4dd0e1"/><path d="m457.882812.152344c-18.195312 0-37.011718 0-55.566406-.152344-4.140625-.0742188-7.527344 3.296875-7.5625 7.4375-.035156 4.144531 3.296875 7.527344 7.4375 7.5625 16.074219.132812 32.320313.152344 48.191406.152344v354.699218c-15.835937-.003906-32.027343-.023437-47.921874-.167968-.023438 0-.046876 0-.070313 0-4.109375 0-7.460937 3.3125-7.5 7.429687-.035156 4.144531 3.289063 7.53125 7.433594 7.570313 18.480469.167968 37.328125.167968 55.558593.167968 4.144532 0 7.5-3.355468 7.5-7.5v-369.699218c0-4.140625-3.359374-7.5-7.5-7.5zm0 0" fill="#4380a0"/></svg>